<?xml version="1.0" standalone="no"?>
<!DOCTYPE svg PUBLIC "-//W3C//DTD SVG 20010904//EN"
 "http://www.w3.org/TR/2001/REC-SVG-20010904/DTD/svg10.dtd">
<svg version="1.0" xmlns="http://www.w3.org/2000/svg"
 width="902.000000pt" height="902.000000pt" viewBox="0 0 902.000000 902.000000"
 preserveAspectRatio="xMidYMid meet">
<metadata>
Created by potrace 1.11, written by Peter Selinger 2001-2013
</metadata>
<g transform="translate(0.000000,902.000000) scale(0.100000,-0.100000)"
fill="#000000" stroke="none">
<path d="M1843 8629 c-12 -4 -107 -278 -328 -945 -172 -516 -310 -943 -308
-949 2 -5 147 -114 321 -242 559 -409 957 -702 967 -710 6 -5 79 -59 163 -120
l154 -113 36 29 c37 29 785 566 872 626 25 17 92 65 150 107 58 43 119 87 135
98 276 197 421 302 423 309 2 5 -17 72 -42 148 -24 76 -74 233 -111 348 -37
116 -69 217 -72 225 -2 8 -17 56 -33 105 -15 50 -78 248 -140 440 -117 365
-162 508 -186 588 l-15 47 -92 1 c-989 5 -1711 11 -1785 12 -51 1 -100 -1
-109 -4z"/>
<path d="M5267 8631 c-6 -2 -15 -9 -19 -15 -4 -6 -136 -400 -294 -876 -157
-476 -291 -881 -299 -900 -7 -19 -17 -52 -23 -72 -10 -36 -9 -37 31 -65 45
-31 521 -381 552 -406 8 -6 525 -386 628 -461 12 -9 88 -65 169 -125 228 -170
218 -164 243 -142 11 10 106 79 210 153 105 74 231 164 280 200 74 53 486 349
975 700 52 37 103 74 114 82 18 15 18 18 -10 103 -15 48 -31 99 -35 113 -3 14
-41 133 -83 265 -43 132 -106 330 -141 440 -35 110 -114 358 -176 550 -61 193
-118 371 -125 398 l-15 47 -92 1 c-51 0 -454 2 -897 5 -443 3 -844 6 -893 7
-48 1 -93 0 -100 -2z"/>
<path d="M4489 6607 c-24 -19 -120 -89 -214 -157 -93 -68 -192 -140 -220 -160
-27 -21 -183 -133 -345 -250 -162 -118 -335 -243 -385 -280 -49 -36 -121 -88
-160 -115 -38 -27 -72 -52 -75 -55 -3 -4 -34 -27 -70 -53 -36 -26 -73 -53 -82
-60 -17 -13 -15 -22 26 -148 24 -74 85 -262 136 -419 51 -157 105 -323 120
-370 16 -47 78 -238 139 -425 60 -187 125 -387 144 -445 l34 -105 999 0 999 0
41 125 c23 69 88 267 144 440 56 173 112 347 125 385 13 39 69 212 125 385 56
173 120 369 141 434 21 65 39 122 39 127 0 4 -95 76 -211 161 -263 191 -398
289 -426 308 -12 8 -131 95 -265 192 -383 279 -712 518 -713 518 -1 0 -22 -15
-46 -33z"/>
<path d="M6275 5437 c-10 -25 -617 -1869 -619 -1878 0 -4 28 -29 64 -56 179
-133 585 -431 618 -452 20 -13 39 -27 42 -30 5 -7 89 -68 455 -336 127 -93
271 -199 322 -237 50 -37 96 -69 101 -70 6 -2 19 3 29 10 45 31 1421 1020
1534 1104 l67 48 -18 53 c-10 28 -51 153 -90 277 -39 124 -80 250 -90 280 -31
94 -152 474 -154 485 -1 6 -36 116 -78 245 -42 129 -100 308 -128 398 -28 89
-57 162 -63 162 -7 1 -457 3 -1000 5 -776 4 -989 2 -992 -8z"/>
<path d="M510 4530 c-165 -498 -300 -908 -300 -912 -1 -4 -8 -24 -16 -44 -17
-41 -32 -27 156 -163 63 -46 147 -107 185 -136 89 -66 368 -273 460 -340 211
-155 278 -204 463 -340 112 -83 233 -171 269 -197 l65 -47 37 28 c34 27 224
163 591 425 85 61 160 114 165 119 6 4 170 122 365 262 195 139 379 271 408
292 41 29 52 42 49 58 -5 21 -16 55 -182 575 -59 184 -119 376 -135 425 -15
50 -47 149 -70 220 -23 72 -57 177 -75 235 -18 58 -56 178 -85 268 l-52 162
-87 1 c-47 0 -448 2 -891 5 -443 3 -853 6 -912 7 l-108 2 -300 -905z"/>
<path d="M4816 3463 c-1 -1 -191 -5 -422 -8 -798 -11 -865 -13 -868 -16 -4 -5
-105 -322 -116 -364 -4 -16 -24 -82 -43 -145 -90 -292 -131 -424 -207 -670
-44 -146 -108 -352 -141 -457 -33 -106 -62 -203 -65 -215 -3 -13 -8 -32 -10
-43 -4 -15 5 -27 33 -45 20 -14 108 -75 195 -137 87 -61 204 -144 260 -183 57
-39 137 -95 178 -124 175 -123 260 -183 530 -372 157 -110 314 -221 350 -247
35 -26 70 -47 77 -47 7 0 116 77 241 171 125 93 238 179 252 189 114 85 307
231 315 237 6 5 186 141 402 302 l391 293 -100 291 c-123 360 -196 573 -253
742 -24 72 -87 256 -140 410 -53 154 -109 317 -123 363 l-27 83 -353 -3 c-195
-2 -355 -4 -356 -5z"/>
</g>
</svg>
